<mxfile host="app.diagrams.net" modified="2024-07-11T16:04:22.734Z" agent="Mozilla/5.0 (Windows NT 10.0; Win64; x64; rv:127.0) Gecko/20100101 Firefox/127.0" version="24.6.4" etag="haDZcAjT-zd2r3evCVoD" type="github">
  <diagram name="Page-1" id="Pfe_4rutyUgECun5avSO">
    <mxGraphModel>
      <root>
        <mxCell id="0" />
        <mxCell id="1" parent="0" />
      </root>
    </mxGraphModel>
  </diagram>
</mxfile>
